HIERARCHY
ROOT Hips
{
	OFFSET 0.000000 0.000000 0.000000
	CHANNELS 6 Xposition Yposition Zposition Xrotation Yrotation Zrotation
	JOINT LeftUpLeg_virtual
	{
		OFFSET 0.000000 0.000000 0.000000
		CHANNELS 3 Xrotation Yrotation Zrotation
		JOINT LeftUpLeg
		{
			OFFSET 10.205400 -3.823500 0.155100
			CHANNELS 3 Xrotation Yrotation Zrotation
			JOINT LeftLeg
			{
				OFFSET 0.708757 -12.982077 0.567790
				CHANNELS 3 Xrotation Yrotation Zrotation
				JOINT LeftFoot
				{
					OFFSET -0.708756 -10.717838 -2.184338
					CHANNELS 3 Xrotation Yrotation Zrotation
					JOINT LeftToeBase
					{
						OFFSET 0.108149 -7.191104 7.560241
						CHANNELS 3 Xrotation Yrotation Zrotation
						JOINT LeftToe_End
						{
							OFFSET 0.070230 0.081724 4.490308
							CHANNELS 3 Xrotation Yrotation Zrotation
							End Site
							{
								OFFSET 0 0 0
							}
						}
					}
				}
			}
		}
	}
	JOINT RightUpLeg_virtual
	{
		OFFSET 0.000000 0.000000 0.000000
		CHANNELS 3 Xrotation Yrotation Zrotation
		JOINT RightUpLeg
		{
			OFFSET -10.205400 -3.823500 0.005500
			CHANNELS 3 Xrotation Yrotation Zrotation
			JOINT RightLeg
			{
				OFFSET -0.708756 -12.982134 0.610632
				CHANNELS 3 Xrotation Yrotation Zrotation
				JOINT RightFoot
				{
					OFFSET 0.708754 -10.717769 -1.945823
					CHANNELS 3 Xrotation Yrotation Zrotation
					JOINT RightToeBase
					{
						OFFSET -0.108140 -7.191069 7.372968
						CHANNELS 3 Xrotation Yrotation Zrotation
						JOINT RightToe_End
						{
							OFFSET -0.070227 0.081735 4.479403
							CHANNELS 3 Xrotation Yrotation Zrotation
							End Site
							{
								OFFSET 0 0 0
							}
						}
					}
				}
			}
		}
	}
	JOINT Spine_virtual
	{
		OFFSET 0.000000 0.000000 0.000000
		CHANNELS 3 Xrotation Yrotation Zrotation
		JOINT Spine
		{
			OFFSET 0.000000 6.876099 0.125700
			CHANNELS 3 Xrotation Yrotation Zrotation
			JOINT Spine1
			{
				OFFSET 0.000000 5.730043 0.104720
				CHANNELS 3 Xrotation Yrotation Zrotation
				JOINT Spine1_split
				{
					OFFSET 0.000000 5.730043 0.104720
					CHANNELS 3 Xrotation Yrotation Zrotation
					JOINT Spine2
					{
						OFFSET 0.000000 5.730043 0.104720
						CHANNELS 3 Xrotation Yrotation Zrotation
						JOINT Neck_virtual
						{
							OFFSET 0.000000 0.000000 0.000000
							CHANNELS 3 Xrotation Yrotation Zrotation
							JOINT Neck
							{
								OFFSET 0.000000 10.314075 0.188496
								CHANNELS 3 Xrotation Yrotation Zrotation
								JOINT Head
								{
									OFFSET 0.000000 7.643700 -2.377400
									CHANNELS 3 Xrotation Yrotation Zrotation
									JOINT HeadTop_End
									{
										OFFSET 0.000000 43.788605 -13.619600
										CHANNELS 3 Xrotation Yrotation Zrotation
										End Site
										{
											OFFSET 0 0 0
										}
									}
								}
							}
						}
						JOINT LeftShoulder_virtual
						{
							OFFSET 0.000000 0.000000 0.000000
							CHANNELS 3 Xrotation Yrotation Zrotation
							JOINT LeftShoulder
							{
								OFFSET 2.196100 4.412489 0.087492
								CHANNELS 3 Xrotation Yrotation Zrotation
								JOINT LeftShoulder_split
								{
									OFFSET 2.196100 4.412489 0.087492
									CHANNELS 3 Xrotation Yrotation Zrotation
									JOINT LeftArm
									{
										OFFSET 8.771219 -2.981674 -0.026999
										CHANNELS 3 Xrotation Yrotation Zrotation
										JOINT LeftForeArm
										{
											OFFSET 8.512804 0.000000 -0.000000
											CHANNELS 3 Xrotation Yrotation Zrotation
											JOINT LeftHand
											{
												OFFSET 18.484802 0.000000 -0.000000
												CHANNELS 3 Xrotation Yrotation Zrotation
												End Site
												{
													OFFSET 0 0 0
												}
											}
										}
									}
								}
							}
						}
						JOINT RightShoulder_virtual
						{
							OFFSET 0.000000 0.000000 0.000000
							CHANNELS 3 Xrotation Yrotation Zrotation
							JOINT RightShoulder
							{
								OFFSET -2.196100 4.412496 0.070690
								CHANNELS 3 Xrotation Yrotation Zrotation
								JOINT RightShoulder_split
								{
									OFFSET -2.196100 4.412496 0.070690
									CHANNELS 3 Xrotation Yrotation Zrotation
									JOINT RightArm
									{
										OFFSET -8.771282 -2.981682 -0.094208
										CHANNELS 3 Xrotation Yrotation Zrotation
										JOINT RightForeArm
										{
											OFFSET -8.494598 0.000000 0.000000
											CHANNELS 3 Xrotation Yrotation Zrotation
											JOINT RightHand
											{
												OFFSET -18.483803 0.000000 0.000001
												CHANNELS 3 Xrotation Yrotation Zrotation
												End Site
												{
													OFFSET 0 0 0
												}
											}
										}
									}
								}
							}
						}
					}
				}
			}
		}
	}
}
MOTION
Frames: 8
Frame Time: 0.03333333
-0.301786 26.564682 0.292938 0.000000 0.000000 0.000000 11.655825 -49.360712 11.305326 -69.352648 16.208370 51.972129 53.929466 -25.144880 2.808936 2.213494 2.700416 -19.144223 -0.941245 -6.111069 0.982356 0.000000 0.000000 0.000000 11.655825 -49.360712 11.305326 -27.355012 4.522924 -38.849115 61.087757 11.597561 -5.601588 -37.636900 -11.607146 32.641884 0.528338 2.970117 1.471441 0.000000 0.000000 0.000000 11.655825 -49.360712 11.305326 10.974542 2.699012 -2.069923 6.100694 5.566535 -4.284688 0.000000 0.000000 0.000000 0.000000 0.000000 0.000000 -5.786911 6.328138 -3.046183 2.318312 9.363380 -0.265397 -4.146499 23.161921 -3.523233 0.000000 0.000000 0.000000 -5.786911 6.328138 -3.046183 -1.875345 -16.181751 -2.870485 0.000000 0.000000 0.000000 -10.644678 2.164747 -45.510599 -22.862380 -25.786292 -15.871739 0.000000 0.000000 0.000000 -5.786911 6.328138 -3.046183 -5.074601 24.343747 1.482676 0.000000 0.000000 0.000000 6.642361 -34.733742 57.610433 -21.032005 44.833823 19.961680 0.000000 0.000000 0.000000 
-0.236569 26.566715 0.319263 0.000000 0.000000 0.000000 10.645219 -52.552807 10.563793 -65.246113 15.410273 53.111107 56.259046 -25.232995 2.980475 -1.790647 4.681808 -19.482020 -0.637888 -5.189284 -0.062671 0.000000 0.000000 0.000000 10.645219 -52.552807 10.563793 -29.000724 6.537518 -38.054826 61.376018 12.499085 -5.785164 -36.121397 -10.000328 32.469316 0.378335 2.978220 1.420439 0.000000 0.000000 0.000000 10.645219 -52.552807 10.563793 11.044053 2.749341 -2.032710 6.244015 5.671766 -4.285778 0.000000 0.000000 0.000000 0.000000 0.000000 0.000000 -5.640076 6.608170 -2.917739 2.645278 9.260215 -0.213893 -3.676956 23.009499 -3.772376 0.000000 0.000000 0.000000 -5.640076 6.608170 -2.917739 -1.772857 -15.071279 -2.573262 0.000000 0.000000 0.000000 -9.648148 1.878012 -45.209295 -22.751843 -26.556769 -16.251525 0.000000 0.000000 0.000000 -5.640076 6.608170 -2.917739 -5.414764 24.900599 2.343719 0.000000 0.000000 0.000000 4.830020 -31.450446 55.681659 -21.606721 44.967408 21.111015 0.000000 0.000000 0.000000 
-0.271335 26.584354 0.318630 0.000000 0.000000 0.000000 9.407296 -55.544454 9.698275 -60.777468 13.132476 52.704605 62.167562 -23.690316 3.549347 -7.201634 8.128767 -19.788967 1.969193 -3.432127 1.744371 0.000000 0.000000 0.000000 9.407296 -55.544454 9.698275 -29.382466 9.287411 -36.421567 61.755832 12.289279 -6.289405 -35.225164 -9.580359 32.763249 -0.030925 3.000279 1.281195 0.000000 0.000000 0.000000 9.407296 -55.544454 9.698275 11.227478 2.808657 -1.922278 6.622065 5.935562 -4.283196 0.000000 0.000000 0.000000 0.000000 0.000000 0.000000 -5.249789 6.884295 -2.789883 2.921514 8.983522 -0.077019 -3.073445 22.597537 -4.427861 0.000000 0.000000 0.000000 -5.249789 6.884295 -2.789883 -1.628007 -13.599107 -2.198471 0.000000 0.000000 0.000000 -7.656124 1.924364 -44.436227 -22.218812 -27.483353 -16.689603 0.000000 0.000000 0.000000 -5.249789 6.884295 -2.789883 -5.521595 25.685630 2.682250 0.000000 0.000000 0.000000 3.144992 -28.050424 54.521193 -22.183275 44.067930 21.624428 0.000000 0.000000 0.000000 
-0.304240 26.557102 0.339472 0.000000 0.000000 0.000000 7.978440 -58.540486 8.630961 -56.823113 11.107920 53.666647 68.622965 -20.743214 3.980598 -14.309362 9.054287 -23.940489 7.429181 -2.656075 8.849893 0.000000 0.000000 0.000000 7.978440 -58.540486 8.630961 -29.213846 12.720526 -34.457177 62.150302 11.515016 -6.950707 -34.513383 -9.854861 33.578723 -0.638514 3.032873 1.074575 0.000000 0.000000 0.000000 7.978440 -58.540486 8.630961 11.487307 2.889853 -1.744568 7.156887 6.280149 -4.268103 0.000000 0.000000 0.000000 0.000000 0.000000 0.000000 -4.692710 7.151620 -2.654779 3.168454 8.581845 0.118292 -2.394688 21.993554 -5.350262 0.000000 0.000000 0.000000 -4.692710 7.151620 -2.654779 -1.392031 -11.113813 -1.624907 0.000000 0.000000 0.000000 -4.936930 1.500546 -43.686699 -21.387733 -28.576936 -17.114748 0.000000 0.000000 0.000000 -4.692710 7.151620 -2.654779 -5.651471 26.970776 3.125276 0.000000 0.000000 0.000000 2.522998 -24.162616 53.170892 -22.720213 43.276126 21.877634 0.000000 0.000000 0.000000 
-0.408557 26.502438 0.347420 0.000000 0.000000 0.000000 6.349234 -61.725280 7.264982 -53.292732 9.618369 54.457863 75.103606 -20.032386 4.060119 -21.817181 10.663121 -26.218508 8.057618 -2.839120 8.570264 0.000000 0.000000 0.000000 6.349234 -61.725280 7.264982 -29.092313 16.545522 -32.392042 62.348125 11.077878 -7.561376 -33.124478 -10.325383 35.343982 -1.383399 3.072882 0.821491 0.000000 0.000000 0.000000 6.349234 -61.725280 7.264982 11.786869 2.981023 -1.524673 7.770478 6.627622 -4.231601 0.000000 0.000000 0.000000 0.000000 0.000000 0.000000 -4.045649 7.405343 -2.504583 3.407264 8.104564 0.345601 -1.695273 21.266462 -6.402583 0.000000 0.000000 0.000000 -4.045649 7.405343 -2.504583 -1.198235 -8.823975 -1.070322 0.000000 0.000000 0.000000 -1.690140 1.580945 -42.916537 -20.383668 -29.841458 -17.458758 0.000000 0.000000 0.000000 -4.045649 7.405343 -2.504583 -5.857942 28.647217 3.741279 0.000000 0.000000 0.000000 2.569318 -20.280111 52.636730 -22.744217 43.682222 19.772727 0.000000 0.000000 0.000000 
-0.601531 26.477448 0.336130 0.000000 0.000000 0.000000 4.428725 -65.278816 5.433182 -50.011297 7.583926 53.609663 81.726014 -20.423517 3.554794 -26.211833 10.443697 -23.198398 4.710715 -2.038702 3.284809 0.000000 0.000000 0.000000 4.428725 -65.278816 5.433182 -29.490998 20.107968 -29.950923 62.386142 10.730532 -8.057224 -31.704488 -10.294068 36.787679 -2.204593 3.116626 0.542633 0.000000 0.000000 0.000000 4.428725 -65.278816 5.433182 12.090009 3.064685 -1.293337 8.385007 6.900268 -4.164794 0.000000 0.000000 0.000000 0.000000 0.000000 0.000000 -3.385450 7.640517 -2.331398 3.657434 7.600635 0.577906 -1.021638 20.487540 -7.450503 0.000000 0.000000 0.000000 -3.385450 7.640517 -2.331398 -1.029312 -6.525269 -0.488119 0.000000 0.000000 0.000000 1.766631 1.705286 -42.439773 -19.332830 -31.269600 -17.659162 0.000000 0.000000 0.000000 -3.385450 7.640517 -2.331398 -6.241806 30.304149 4.683754 0.000000 0.000000 0.000000 1.555788 -15.867685 52.371056 -21.618998 42.736668 14.954334 0.000000 0.000000 0.000000 
-0.911346 26.477123 0.316496 0.000000 0.000000 0.000000 1.931407 -69.335327 2.771526 -48.867633 -0.546123 47.479995 90.171078 -24.064765 0.977968 -20.228819 3.157478 -12.898624 -4.750671 1.363855 -1.299431 0.000000 0.000000 0.000000 1.931407 -69.335327 2.771526 -30.832273 22.936772 -27.175963 62.174693 10.926105 -8.290315 -30.065147 -9.302111 37.716178 -3.041021 3.161346 0.258763 0.000000 0.000000 0.000000 1.931407 -69.335327 2.771526 12.359822 3.084290 -1.069782 8.923188 7.020094 -4.058733 0.000000 0.000000 0.000000 0.000000 0.000000 0.000000 -2.789081 7.852353 -2.127375 3.937824 7.119382 0.789869 -0.407133 19.730653 -8.365667 0.000000 0.000000 0.000000 -2.789081 7.852353 -2.127375 -0.898869 -4.398131 0.098769 0.000000 0.000000 0.000000 5.097167 1.734676 -42.368456 -18.363826 -32.842903 -17.662333 0.000000 0.000000 0.000000 -2.789081 7.852353 -2.127375 -6.749419 32.134541 6.058201 0.000000 0.000000 0.000000 -0.229562 -10.916179 51.071551 -19.511042 40.149877 9.854806 0.000000 0.000000 0.000000 
-1.148547 26.558727 0.204548 0.000000 0.000000 0.000000 -0.605467 -75.497954 -0.870996 -50.138773 -9.302325 38.603850 97.653510 -27.527080 -1.854824 -8.275273 -3.451525 -6.153080 -20.421200 5.668289 -4.626217 0.000000 0.000000 0.000000 -0.605467 -75.497954 -0.870996 -36.228317 23.945183 -22.449804 60.202291 12.455296 -8.299416 -25.650364 -5.418350 37.700773 -3.831750 3.203295 -0.009366 0.000000 0.000000 0.000000 -0.605467 -75.497954 -0.870996 12.650257 2.699688 -0.101351 9.445722 7.103434 -3.161255 0.000000 0.000000 0.000000 0.000000 0.000000 0.000000 -2.325258 7.847065 -0.992089 4.144024 5.424355 1.314848 0.194478 17.013433 -9.161290 0.000000 0.000000 0.000000 -2.325258 7.847065 -0.992089 -0.917694 -1.878584 0.761530 0.000000 0.000000 0.000000 13.733848 -0.847949 -45.771823 -14.868610 -35.110167 -16.295112 0.000000 0.000000 0.000000 -2.325258 7.847065 -0.992089 -7.599280 34.810933 8.621274 0.000000 0.000000 0.000000 -2.613182 -2.476482 44.662569 -16.342606 34.189909 6.278638 0.000000 0.000000 0.000000 
